<svg id="visual" viewBox="0 0 900 600" width="900" height="600" xmlns="http://www.w3.org/2000/svg" xmlns:xlink="http://www.w3.org/1999/xlink" version="1.1"><g stroke-width="1" stroke-linejoin="bevel"><path d="M436 267L388 224L321 321Z" fill="#ae6af3" stroke="#ae6af3"></path><path d="M321 321L415 403L436 267Z" fill="#a55af0" stroke="#a55af0"></path><path d="M388 224L269 193L321 321Z" fill="#b67af6" stroke="#b67af6"></path><path d="M269 193L215 267L321 321Z" fill="#9333ea" stroke="#9333ea"></path><path d="M321 321L263 435L415 403Z" fill="#e1c7fe" stroke="#e1c7fe"></path><path d="M515 371L537 288L436 267Z" fill="#d8b8fd" stroke="#d8b8fd"></path><path d="M436 267L539 183L388 224Z" fill="#9c48ed" stroke="#9c48ed"></path><path d="M415 403L515 371L436 267Z" fill="#b67af6" stroke="#b67af6"></path><path d="M178 402L263 435L321 321Z" fill="#a55af0" stroke="#a55af0"></path><path d="M515 371L563 288L537 288Z" fill="#d0a9fc" stroke="#d0a9fc"></path><path d="M537 288L539 183L436 267Z" fill="#b67af6" stroke="#b67af6"></path><path d="M263 435L369 475L415 403Z" fill="#e9d6ff" stroke="#e9d6ff"></path><path d="M415 403L463 477L515 371Z" fill="#9c48ed" stroke="#9c48ed"></path><path d="M563 288L539 183L537 288Z" fill="#bf8af8" stroke="#bf8af8"></path><path d="M388 224L394 70L269 193Z" fill="#a55af0" stroke="#a55af0"></path><path d="M369 475L463 477L415 403Z" fill="#bf8af8" stroke="#bf8af8"></path><path d="M515 371L621 416L563 288Z" fill="#d0a9fc" stroke="#d0a9fc"></path><path d="M507 100L394 70L388 224Z" fill="#9333ea" stroke="#9333ea"></path><path d="M269 193L179 173L215 267Z" fill="#ae6af3" stroke="#ae6af3"></path><path d="M215 267L178 402L321 321Z" fill="#d8b8fd" stroke="#d8b8fd"></path><path d="M275 65L179 173L269 193Z" fill="#e9d6ff" stroke="#e9d6ff"></path><path d="M130 271L178 402L215 267Z" fill="#9c48ed" stroke="#9c48ed"></path><path d="M539 183L507 100L388 224Z" fill="#9333ea" stroke="#9333ea"></path><path d="M191 527L289 500L263 435Z" fill="#b67af6" stroke="#b67af6"></path><path d="M263 435L289 500L369 475Z" fill="#e1c7fe" stroke="#e1c7fe"></path><path d="M369 475L376 600L463 477Z" fill="#9c48ed" stroke="#9c48ed"></path><path d="M394 70L275 65L269 193Z" fill="#d0a9fc" stroke="#d0a9fc"></path><path d="M179 173L130 271L215 267Z" fill="#e1c7fe" stroke="#e1c7fe"></path><path d="M275 65L162 136L179 173Z" fill="#d8b8fd" stroke="#d8b8fd"></path><path d="M179 173L108 235L130 271Z" fill="#9c48ed" stroke="#9c48ed"></path><path d="M162 136L108 235L179 173Z" fill="#c899fa" stroke="#c899fa"></path><path d="M130 271L94 401L178 402Z" fill="#e9d6ff" stroke="#e9d6ff"></path><path d="M563 288L629 184L539 183Z" fill="#d8b8fd" stroke="#d8b8fd"></path><path d="M539 183L614 136L507 100Z" fill="#a55af0" stroke="#a55af0"></path><path d="M678 325L629 184L563 288Z" fill="#d8b8fd" stroke="#d8b8fd"></path><path d="M560 510L621 416L515 371Z" fill="#9333ea" stroke="#9333ea"></path><path d="M629 184L614 136L539 183Z" fill="#9333ea" stroke="#9333ea"></path><path d="M463 477L560 510L515 371Z" fill="#d0a9fc" stroke="#d0a9fc"></path><path d="M490 600L560 510L463 477Z" fill="#9333ea" stroke="#9333ea"></path><path d="M507 100L433 0L394 70Z" fill="#d8b8fd" stroke="#d8b8fd"></path><path d="M394 70L295 0L275 65Z" fill="#c899fa" stroke="#c899fa"></path><path d="M495 0L433 0L507 100Z" fill="#e1c7fe" stroke="#e1c7fe"></path><path d="M433 0L295 0L394 70Z" fill="#bf8af8" stroke="#bf8af8"></path><path d="M190 0L123 90L162 136Z" fill="#d0a9fc" stroke="#d0a9fc"></path><path d="M178 402L191 527L263 435Z" fill="#e9d6ff" stroke="#e9d6ff"></path><path d="M326 600L376 600L369 475Z" fill="#9333ea" stroke="#9333ea"></path><path d="M90 498L191 527L178 402Z" fill="#d0a9fc" stroke="#d0a9fc"></path><path d="M0 287L94 401L130 271Z" fill="#bf8af8" stroke="#bf8af8"></path><path d="M621 416L678 325L563 288Z" fill="#9c48ed" stroke="#9c48ed"></path><path d="M629 184L680 191L614 136Z" fill="#e9d6ff" stroke="#e9d6ff"></path><path d="M583 0L495 0L507 100Z" fill="#9c48ed" stroke="#9c48ed"></path><path d="M326 600L369 475L289 500Z" fill="#ae6af3" stroke="#ae6af3"></path><path d="M208 600L326 600L289 500Z" fill="#e1c7fe" stroke="#e1c7fe"></path><path d="M678 325L680 191L629 184Z" fill="#d0a9fc" stroke="#d0a9fc"></path><path d="M614 136L583 0L507 100Z" fill="#c899fa" stroke="#c899fa"></path><path d="M162 136L123 90L108 235Z" fill="#c899fa" stroke="#c899fa"></path><path d="M190 0L162 136L275 65Z" fill="#9c48ed" stroke="#9c48ed"></path><path d="M376 600L490 600L463 477Z" fill="#e9d6ff" stroke="#e9d6ff"></path><path d="M714 493L687 415L621 416Z" fill="#9333ea" stroke="#9333ea"></path><path d="M621 416L687 415L678 325Z" fill="#d8b8fd" stroke="#d8b8fd"></path><path d="M774 137L729 89L680 191Z" fill="#9c48ed" stroke="#9c48ed"></path><path d="M714 493L621 416L560 510Z" fill="#9c48ed" stroke="#9c48ed"></path><path d="M295 0L190 0L275 65Z" fill="#d0a9fc" stroke="#d0a9fc"></path><path d="M662 0L583 0L614 136Z" fill="#e9d6ff" stroke="#e9d6ff"></path><path d="M94 401L90 498L178 402Z" fill="#9c48ed" stroke="#9c48ed"></path><path d="M191 527L208 600L289 500Z" fill="#9c48ed" stroke="#9c48ed"></path><path d="M132 600L208 600L191 527Z" fill="#a55af0" stroke="#a55af0"></path><path d="M94 401L0 515L90 498Z" fill="#9333ea" stroke="#9333ea"></path><path d="M108 235L0 287L130 271Z" fill="#e1c7fe" stroke="#e1c7fe"></path><path d="M0 189L0 287L108 235Z" fill="#e1c7fe" stroke="#e1c7fe"></path><path d="M490 600L598 600L560 510Z" fill="#d0a9fc" stroke="#d0a9fc"></path><path d="M0 287L0 376L94 401Z" fill="#9c48ed" stroke="#9c48ed"></path><path d="M0 115L0 189L123 90Z" fill="#9c48ed" stroke="#9c48ed"></path><path d="M123 90L0 189L108 235Z" fill="#d0a9fc" stroke="#d0a9fc"></path><path d="M90 498L132 600L191 527Z" fill="#bf8af8" stroke="#bf8af8"></path><path d="M0 600L132 600L90 498Z" fill="#9c48ed" stroke="#9c48ed"></path><path d="M598 600L714 493L560 510Z" fill="#ae6af3" stroke="#ae6af3"></path><path d="M785 388L795 298L678 325Z" fill="#a55af0" stroke="#a55af0"></path><path d="M795 298L680 191L678 325Z" fill="#d0a9fc" stroke="#d0a9fc"></path><path d="M680 191L729 89L614 136Z" fill="#9c48ed" stroke="#9c48ed"></path><path d="M729 89L662 0L614 136Z" fill="#a55af0" stroke="#a55af0"></path><path d="M70 0L0 115L123 90Z" fill="#bf8af8" stroke="#bf8af8"></path><path d="M190 0L70 0L123 90Z" fill="#d0a9fc" stroke="#d0a9fc"></path><path d="M785 388L678 325L687 415Z" fill="#bf8af8" stroke="#bf8af8"></path><path d="M714 493L785 388L687 415Z" fill="#e9d6ff" stroke="#e9d6ff"></path><path d="M789 162L774 137L680 191Z" fill="#ae6af3" stroke="#ae6af3"></path><path d="M729 89L804 0L662 0Z" fill="#a55af0" stroke="#a55af0"></path><path d="M795 298L789 162L680 191Z" fill="#b67af6" stroke="#b67af6"></path><path d="M0 376L0 515L94 401Z" fill="#d0a9fc" stroke="#d0a9fc"></path><path d="M598 600L723 600L714 493Z" fill="#d0a9fc" stroke="#d0a9fc"></path><path d="M714 493L811 487L785 388Z" fill="#bf8af8" stroke="#bf8af8"></path><path d="M70 0L0 0L0 115Z" fill="#9c48ed" stroke="#9c48ed"></path><path d="M793 600L811 487L714 493Z" fill="#e9d6ff" stroke="#e9d6ff"></path><path d="M900 375L900 315L795 298Z" fill="#e1c7fe" stroke="#e1c7fe"></path><path d="M900 119L774 137L789 162Z" fill="#a55af0" stroke="#a55af0"></path><path d="M0 515L0 600L90 498Z" fill="#b67af6" stroke="#b67af6"></path><path d="M900 227L789 162L795 298Z" fill="#d8b8fd" stroke="#d8b8fd"></path><path d="M900 119L804 0L774 137Z" fill="#9c48ed" stroke="#9c48ed"></path><path d="M774 137L804 0L729 89Z" fill="#bf8af8" stroke="#bf8af8"></path><path d="M723 600L793 600L714 493Z" fill="#9c48ed" stroke="#9c48ed"></path><path d="M900 375L785 388L811 487Z" fill="#d0a9fc" stroke="#d0a9fc"></path><path d="M900 375L795 298L785 388Z" fill="#9c48ed" stroke="#9c48ed"></path><path d="M900 315L900 227L795 298Z" fill="#b67af6" stroke="#b67af6"></path><path d="M900 516L900 375L811 487Z" fill="#e1c7fe" stroke="#e1c7fe"></path><path d="M900 227L900 119L789 162Z" fill="#d8b8fd" stroke="#d8b8fd"></path><path d="M793 600L900 516L811 487Z" fill="#e9d6ff" stroke="#e9d6ff"></path><path d="M900 119L900 0L804 0Z" fill="#ae6af3" stroke="#ae6af3"></path><path d="M793 600L900 600L900 516Z" fill="#b67af6" stroke="#b67af6"></path></g></svg>